<?xml version="1.0" encoding="utf-8"?>
<!-- Generator: Adobe Illustrator 23.1.1, SVG Export Plug-In . SVG Version: 6.00 Build 0)  -->
<svg version="1.1" id="Capa_1" xmlns="http://www.w3.org/2000/svg" xmlns:xlink="http://www.w3.org/1999/xlink" x="0px" y="0px"
	 viewBox="0 0 512 512" style="enable-background:new 0 0 512 512;" xml:space="preserve">
<style type="text/css">
	.st0{fill:#CFCFCF;}
	.st1{fill:#A1A1A1;}
	.st2{fill:#474747;}
</style>
<polygon class="st0" points="432.1,250.5 432.1,470 296.6,470 296.6,337 221.4,337 221.4,470 79.9,470 79.9,250.5 256,115.1 "/>
<path class="st1" d="M439.5,183.1V90.3h-74.2v35.8L256,42L0,238.9l53.6,69.7L256,153l202.4,155.7L512,239L439.5,183.1z"/>
<polygon class="st1" points="432.1,250.5 432.1,470 296.6,470 296.6,337 256,337 256,115.1 "/>
<polygon class="st2" points="512,238.9 458.4,308.6 256,153 256,42 365.3,126.1 365.3,90.3 439.5,90.3 439.5,183.1 "/>
</svg>
