<?xml version="1.0" encoding="utf-8"?>
<!-- Generator: Adobe Illustrator 23.1.1, SVG Export Plug-In . SVG Version: 6.00 Build 0)  -->
<svg version="1.1" id="Capa_1" xmlns="http://www.w3.org/2000/svg" xmlns:xlink="http://www.w3.org/1999/xlink" x="0px" y="0px"
	 viewBox="0 0 600 600" style="enable-background:new 0 0 600 600;" xml:space="preserve">
<style type="text/css">
	.st0{fill:#FFFFFF;}
</style>
<g>
	<path class="st0" d="M357.9,300c0,31.8-25.4,57.2-57.2,57.2s-57.2-25.4-57.2-57.2s25.4-57.2,57.2-57.2
		C331.8,242.8,357.9,268.2,357.9,300z"/>
	<path class="st0" d="M434.8,198.4c-2.8-7.8-7.1-14.1-12.7-19.8c-5.6-5.6-12-9.9-19.8-12.7c-6.4-2.1-15.5-4.9-31.8-5.6
		c-19.1-1.4-24-1.4-70.6-1.4c-45.9,0-51.5,0-69.9,0.7c-16.9,0.7-26.1,3.5-31.8,5.6c-7.8,2.8-14.1,7.1-19.8,12.7
		c-5.6,5.6-9.9,12-12.7,19.8c-2.1,6.4-4.9,15.5-5.6,31.8c-0.7,18.4-0.7,23.3-0.7,69.9c0,45.9,0,51.5,0.7,69.9
		c0.7,16.9,3.5,26.1,5.6,31.8c2.8,7.8,7.1,14.1,12.7,19.8c5.6,5.6,12,9.9,19.8,12.7c6.4,2.1,15.5,4.9,31.8,5.6
		c18.4,0.7,23.3,0.7,69.9,0.7c45.9,0,51.5,0,69.9-0.7c16.9-0.7,26.1-3.5,31.8-5.6c14.8-5.6,26.8-17.6,32.5-32.5
		c2.1-6.4,4.9-15.5,5.6-31.8c0.7-18.4,0.7-23.3,0.7-69.9c0-45.9,0-51.5-0.7-69.9C439.8,213.9,436.9,204.7,434.8,198.4z M300,388.2
		c-48.7,0-88.2-39.5-88.2-88.2s39.5-88.2,88.2-88.2s88.2,39.5,88.2,88.2S349.4,388.2,300,388.2z M392.5,228.7
		c-11.3,0-20.5-9.2-20.5-20.5c0-11.3,9.2-20.5,20.5-20.5s20.5,9.2,20.5,20.5C412.9,219.5,403.8,228.7,392.5,228.7z"/>
	<path class="st0" d="M300,0C134.1,0,0,134.1,0,300s134.1,300,300,300s300-134.1,300-300S465.9,0,300,0z M471.5,371.3
		c-0.7,18.4-3.5,31.1-7.8,41.6c-9.2,23.3-27.5,41.6-50.1,50.1c-11.3,4.2-23.3,7.1-41.6,7.8s-24,0.7-71.3,0.7
		c-46.6,0-52.9,0-71.3-0.7s-31.1-3.5-41.6-7.8c-11.3-4.2-21.9-11.3-30.4-19.8c-8.5-8.5-15.5-19.1-19.8-30.4
		c-4.2-11.3-7.1-23.3-7.8-41.6c-0.7-18.4-0.7-24-0.7-71.3c0-46.6,0-52.9,0.7-71.3s3.5-31.1,7.8-41.6c4.2-11.3,11.3-21.9,19.8-30.4
		c8.5-8.5,19.1-15.5,30.4-19.8c11.3-4.2,23.3-7.1,41.6-7.8s24-0.7,71.3-0.7c46.6,0,52.9,0,71.3,0.7s31.1,3.5,41.6,7.8
		c11.3,4.2,21.9,11.3,30.4,19.8c8.5,8.5,15.5,19.1,19.8,30.4c4.2,11.3,7.1,23.3,7.8,41.6s0.7,24,0.7,71.3
		C472.9,346.6,472.2,352.9,471.5,371.3z"/>
</g>
</svg>
